<?xml version="1.0" encoding="UTF-8" standalone="no"?>
<svg
   xmlns:dc="http://purl.org/dc/elements/1.1/"
   xmlns:cc="http://creativecommons.org/ns#"
   xmlns:rdf="http://www.w3.org/1999/02/22-rdf-syntax-ns#"
   xmlns:svg="http://www.w3.org/2000/svg"
   xmlns="http://www.w3.org/2000/svg"
   xmlns:sodipodi="http://sodipodi.sourceforge.net/DTD/sodipodi-0.dtd"
   xmlns:inkscape="http://www.inkscape.org/namespaces/inkscape"
   version="1.0"
   width="320"
   height="319"
   viewBox="0 0 240 239.25"
   preserveAspectRatio="xMidYMid meet"
   id="svg72"
   sodipodi:docname="X.svg"
   inkscape:version="0.92.4 (5da689c313, 2019-01-14)">
  <defs
     id="defs76" />
  <sodipodi:namedview
     pagecolor="#ffffff"
     bordercolor="#666666"
     borderopacity="1"
     objecttolerance="10"
     gridtolerance="10"
     guidetolerance="10"
     inkscape:pageopacity="0"
     inkscape:pageshadow="2"
     inkscape:window-width="1366"
     inkscape:window-height="705"
     id="namedview74"
     showgrid="false"
     units="px"
     inkscape:zoom="1.39"
     inkscape:cx="325.93799"
     inkscape:cy="146.01981"
     inkscape:window-x="-8"
     inkscape:window-y="-8"
     inkscape:window-maximized="1"
     inkscape:current-layer="svg72" />
  <metadata
     id="metadata44">
Created by potrace 1.10, written by Peter Selinger 2001-2011
<rdf:RDF>
  <cc:Work
     rdf:about="">
    <dc:format>image/svg+xml</dc:format>
    <dc:type
       rdf:resource="http://purl.org/dc/dcmitype/StillImage" />
    <dc:title></dc:title>
  </cc:Work>
</rdf:RDF>
</metadata>
  <g
     transform="matrix(0.03529608,0,0,-0.03538045,0.57163244,238.79766)"
     id="g70"
     style="fill:#ff0000;stroke:none;stroke-width:2.8297956">
    <path
       d="m 3140,6706 c 0,-18 -31,-26 -105,-26 -92,-1 -272,-28 -430,-64 -137,-32 -150,-36 -190,-50 -22,-8 -50,-15 -62,-16 -12,0 -24,-4 -27,-9 -3,-5 -21,-12 -40,-15 -20,-4 -48,-13 -63,-21 -15,-8 -34,-15 -41,-15 -7,0 -20,-4 -30,-9 -27,-13 -83,-38 -137,-61 -27,-12 -64,-28 -82,-36 -17,-8 -36,-14 -42,-14 -6,0 -11,-4 -11,-9 0,-5 -12,-12 -27,-16 -15,-3 -30,-10 -33,-13 -3,-4 -27,-18 -55,-32 -74,-38 -150,-83 -153,-92 -2,-4 -9,-8 -15,-8 -6,0 -36,-17 -66,-37 -59,-40 -169,-118 -186,-131 -5,-4 -41,-32 -80,-62 -158,-122 -415,-379 -535,-535 -29,-39 -56,-72 -59,-75 -6,-5 -36,-48 -112,-160 -62,-91 -135,-213 -143,-238 -4,-12 -11,-22 -16,-22 -4,0 -11,-12 -14,-26 -4,-15 -14,-33 -21,-41 -8,-8 -15,-23 -15,-34 0,-10 -4,-19 -9,-19 -5,0 -13,-10 -16,-22 -4,-13 -12,-36 -20,-53 -7,-16 -21,-48 -30,-70 -18,-43 -43,-99 -56,-127 -5,-10 -9,-23 -9,-29 0,-6 -6,-25 -14,-42 -7,-18 -23,-66 -36,-107 -12,-41 -29,-94 -36,-118 -8,-23 -14,-53 -14,-65 0,-13 -4,-27 -9,-32 -5,-6 -14,-39 -21,-75 C 54,3929 42,3863 36,3835 23,3773 7,3509 7,3355 c 0,-178 18,-466 32,-505 5,-14 12,-52 16,-85 3,-33 10,-73 15,-90 9,-31 23,-92 41,-180 6,-27 14,-54 19,-60 4,-5 11,-29 15,-52 4,-24 10,-45 15,-48 5,-3 11,-23 15,-45 4,-22 11,-42 16,-46 5,-3 9,-13 9,-22 0,-9 7,-30 15,-46 8,-15 15,-35 15,-43 0,-8 7,-27 15,-41 8,-15 24,-49 35,-77 35,-82 112,-236 152,-303 21,-34 38,-66 38,-70 0,-4 7,-17 15,-27 9,-11 39,-56 68,-100 28,-44 54,-82 57,-85 3,-3 16,-21 28,-41 12,-19 32,-47 44,-60 13,-14 37,-45 53,-70 17,-24 122,-136 235,-249 203,-204 241,-240 290,-271 14,-9 39,-29 55,-43 17,-15 48,-39 70,-54 22,-15 42,-29 45,-32 3,-4 23,-17 45,-30 22,-13 42,-27 45,-30 4,-6 204,-125 252,-151 59,-31 140,-71 183,-89 28,-11 62,-27 77,-35 14,-8 33,-15 42,-15 9,0 16,-4 16,-8 0,-4 17,-13 38,-19 20,-6 82,-28 137,-47 100,-37 142,-49 225,-67 25,-6 54,-14 65,-19 21,-9 80,-21 220,-45 44,-7 89,-16 100,-19 39,-12 332,-29 490,-29 158,0 451,17 490,29 11,3 56,12 100,19 140,24 199,36 220,45 11,5 40,13 65,19 83,18 125,30 225,67 55,19 117,41 138,47 20,6 37,15 37,19 0,4 7,8 16,8 9,0 28,7 42,15 15,8 50,24 77,35 43,18 124,58 183,89 48,26 248,145 252,151 3,3 23,17 45,30 22,13 42,26 45,30 3,3 23,17 45,32 22,15 54,39 70,54 17,14 41,34 55,43 46,30 84,65 270,251 189,188 217,218 260,280 14,19 35,46 48,60 13,14 33,41 44,60 12,19 25,37 28,40 3,3 29,41 57,85 29,44 59,89 68,100 8,10 15,23 15,27 0,4 17,36 38,70 40,67 117,221 152,303 11,28 27,62 35,77 8,14 15,33 15,41 0,8 7,28 15,43 8,16 15,37 15,46 0,9 4,19 9,22 5,4 12,24 16,46 4,22 10,42 15,45 5,3 11,24 15,48 4,23 11,47 15,52 5,6 13,33 19,60 15,76 32,146 42,185 10,35 21,109 39,245 5,39 9,102 9,142 1,80 7,103 27,103 11,0 14,33 14,180 0,147 -3,180 -14,180 -20,0 -26,23 -27,103 0,81 -12,185 -33,302 -8,44 -20,109 -26,145 -7,36 -16,69 -21,74 -5,6 -9,20 -9,33 0,12 -6,42 -14,65 -7,24 -24,77 -36,118 -13,41 -29,89 -36,107 -8,17 -14,36 -14,42 0,6 -4,19 -9,29 -13,28 -38,84 -56,127 -9,22 -23,54 -30,70 -8,17 -16,40 -20,53 -3,12 -10,22 -15,22 -5,0 -11,14 -15,30 -4,17 -10,30 -15,30 -5,0 -11,14 -15,30 -4,17 -10,30 -15,30 -5,0 -12,10 -16,22 -8,25 -82,148 -140,233 -22,33 -56,83 -75,110 -19,28 -37,52 -40,55 -3,3 -30,36 -59,75 -121,156 -380,416 -535,535 -38,30 -74,58 -80,62 -17,13 -127,91 -186,131 -30,20 -60,37 -66,37 -6,0 -13,4 -15,8 -3,9 -79,54 -153,92 -27,14 -52,28 -55,32 -3,3 -18,10 -33,13 -15,4 -27,11 -27,16 0,5 -5,9 -11,9 -6,0 -25,6 -42,14 -18,8 -54,24 -82,36 -54,23 -110,48 -137,61 -10,5 -23,9 -30,9 -7,0 -26,7 -41,15 -15,8 -43,17 -63,21 -19,3 -37,10 -40,15 -3,5 -15,9 -27,9 -12,1 -40,8 -62,16 -40,14 -53,18 -190,50 -134,30 -231,46 -350,56 -166,13 -185,16 -185,33 0,13 -35,15 -225,15 -185,0 -225,-2 -225,-14 z m 565,-87 c 154,-14 387,-53 416,-69 9,-4 38,-12 65,-15 27,-4 54,-11 59,-15 6,-4 29,-11 52,-15 24,-4 45,-10 48,-15 3,-5 23,-11 45,-15 22,-4 42,-11 46,-16 3,-5 13,-9 22,-9 9,0 30,-7 46,-15 15,-8 33,-15 38,-15 8,0 40,-13 123,-50 11,-5 43,-19 70,-31 45,-19 90,-41 195,-95 19,-9 37,-20 40,-24 3,-3 25,-16 50,-29 25,-13 64,-36 88,-52 24,-16 45,-29 47,-29 5,0 139,-91 145,-99 3,-3 23,-19 46,-34 22,-15 49,-35 60,-45 10,-10 51,-43 89,-73 90,-72 322,-304 394,-394 30,-38 66,-81 79,-95 12,-14 33,-41 44,-60 12,-19 25,-37 29,-40 7,-6 99,-140 99,-145 0,-2 13,-23 29,-47 16,-24 39,-63 52,-88 13,-25 26,-47 29,-50 4,-3 15,-21 24,-40 49,-95 75,-149 91,-185 37,-88 57,-131 66,-147 5,-10 9,-23 9,-30 1,-7 9,-31 20,-53 11,-22 19,-48 20,-57 0,-9 4,-19 9,-22 5,-3 12,-22 16,-42 3,-20 10,-44 15,-53 8,-15 13,-32 46,-166 41,-162 69,-330 84,-500 12,-130 11,-463 0,-590 -14,-147 -58,-418 -71,-440 -4,-5 -10,-32 -14,-60 -4,-27 -10,-54 -15,-60 -4,-5 -11,-26 -15,-45 -10,-49 -34,-129 -51,-167 -8,-17 -14,-37 -14,-45 0,-7 -7,-22 -15,-32 -8,-11 -15,-28 -15,-38 0,-10 -4,-26 -9,-36 -6,-9 -20,-39 -32,-67 -46,-104 -144,-301 -156,-313 -7,-7 -13,-18 -13,-23 0,-9 -59,-110 -70,-119 -3,-3 -17,-23 -30,-45 -13,-22 -27,-42 -30,-45 -3,-3 -17,-23 -30,-45 -13,-22 -27,-42 -30,-45 -4,-3 -24,-29 -45,-59 -20,-30 -47,-64 -59,-75 -12,-12 -47,-52 -78,-91 -31,-38 -89,-104 -130,-145 -63,-64 -111,-108 -258,-234 -14,-12 -56,-46 -95,-76 -38,-29 -72,-56 -75,-60 -3,-3 -23,-17 -45,-30 -22,-13 -42,-27 -45,-30 -3,-3 -23,-17 -45,-30 -22,-13 -46,-30 -53,-37 -7,-7 -18,-13 -24,-13 -6,0 -25,-10 -42,-23 -17,-12 -53,-33 -81,-46 -27,-14 -52,-27 -55,-30 -8,-10 -96,-51 -109,-51 -6,0 -11,-4 -11,-10 0,-5 -6,-10 -14,-10 -8,0 -45,-16 -83,-35 -37,-19 -74,-35 -81,-35 -7,0 -20,-4 -30,-9 -39,-20 -93,-41 -105,-41 -7,0 -24,-6 -39,-14 -15,-8 -41,-17 -59,-21 -19,-4 -40,-11 -49,-16 -8,-4 -35,-13 -60,-19 -25,-6 -72,-18 -105,-26 -266,-66 -496,-93 -800,-93 -269,0 -450,17 -670,63 -64,14 -97,22 -235,56 -25,6 -52,15 -60,19 -9,5 -30,12 -49,16 -18,4 -44,13 -59,21 -15,8 -32,14 -39,14 -12,0 -66,21 -105,41 -10,5 -23,9 -30,9 -7,0 -44,16 -81,35 -38,19 -75,35 -83,35 -8,0 -14,5 -14,10 0,6 -5,10 -11,10 -13,0 -101,41 -109,51 -3,3 -27,16 -55,30 -27,13 -64,34 -81,46 -17,13 -36,23 -42,23 -6,0 -17,6 -24,13 -7,7 -31,24 -53,37 -22,13 -42,27 -45,30 -3,3 -23,17 -45,30 -22,13 -42,27 -45,30 -3,4 -36,31 -75,60 -38,30 -81,64 -95,76 -147,126 -195,170 -258,234 -41,41 -99,107 -130,145 -31,39 -66,79 -78,91 -12,11 -39,45 -59,75 -21,30 -41,56 -45,59 -3,3 -17,23 -30,45 -13,22 -27,42 -30,45 -3,3 -17,23 -30,45 -13,22 -27,42 -30,45 -11,9 -70,110 -70,119 0,5 -6,16 -13,23 -12,12 -110,209 -156,313 -12,28 -26,58 -32,67 -5,10 -9,26 -9,36 0,10 -7,27 -15,38 -8,10 -15,25 -15,32 0,8 -6,28 -14,45 -17,38 -41,118 -51,167 -4,19 -11,40 -15,45 -5,6 -11,33 -15,60 -4,28 -10,55 -14,60 -13,22 -57,293 -71,440 -11,128 -11,460 0,595 15,167 42,329 84,495 33,134 38,151 46,166 5,9 12,33 15,53 4,20 11,39 16,42 5,3 9,13 9,22 1,9 9,35 20,57 11,22 19,46 20,53 0,7 4,20 10,30 5,9 16,33 24,52 33,80 60,138 86,190 56,110 64,125 70,130 3,3 16,25 29,50 13,25 36,64 52,88 16,24 29,45 29,47 0,5 92,139 99,145 4,3 17,21 29,40 11,19 32,46 44,60 13,14 49,57 79,95 72,90 304,322 394,394 39,30 79,63 89,73 11,10 38,30 60,45 23,15 43,31 46,34 6,8 140,99 145,99 2,0 23,13 47,29 24,16 63,39 88,52 25,13 47,26 50,29 3,4 21,15 40,24 105,54 150,76 195,95 28,12 59,26 70,31 83,37 115,50 123,50 5,0 23,7 38,15 16,8 37,15 46,15 9,0 19,4 22,9 4,5 24,12 46,16 22,4 42,10 45,15 3,5 24,11 48,15 23,4 47,11 52,15 6,4 32,11 59,15 27,3 56,11 65,15 16,9 87,24 196,40 33,5 89,14 125,20 156,27 533,32 775,9 z"
       id="path46"
       inkscape:connector-curvature="0"
       style="stroke-width:2.8297956" />
    <path
       d="m 3150,6480 c -36,-5 -110,-14 -165,-19 -127,-13 -230,-27 -275,-40 -37,-10 -104,-25 -180,-41 -25,-6 -54,-14 -65,-19 -11,-5 -54,-19 -95,-31 -41,-13 -79,-27 -85,-31 -5,-5 -18,-9 -30,-9 -12,0 -30,-7 -41,-15 -10,-8 -25,-15 -32,-15 -8,0 -30,-7 -50,-16 -69,-30 -367,-178 -372,-184 -3,-4 -27,-20 -55,-36 -27,-16 -57,-33 -67,-39 -57,-34 -204,-139 -263,-189 -22,-18 -71,-60 -110,-92 -127,-105 -292,-279 -418,-439 -4,-5 -16,-21 -27,-34 -11,-13 -20,-27 -20,-30 0,-3 -10,-17 -23,-31 -12,-14 -34,-43 -47,-65 -13,-22 -27,-42 -30,-45 -19,-15 -132,-218 -191,-340 -22,-47 -54,-111 -70,-143 -16,-31 -29,-63 -29,-71 0,-8 -7,-27 -15,-42 -8,-16 -15,-37 -15,-46 0,-9 -4,-19 -9,-22 -5,-4 -12,-24 -16,-46 -4,-22 -11,-42 -15,-45 -5,-3 -12,-26 -16,-50 -3,-25 -10,-48 -15,-50 -4,-3 -11,-27 -15,-53 -3,-26 -10,-54 -15,-63 -23,-46 -88,-492 -75,-524 5,-13 387,-15 3160,-15 2690,0 3155,2 3159,14 3,8 2,47 -3,87 -23,204 -33,275 -40,284 -4,6 -11,38 -15,73 -4,34 -10,64 -15,67 -4,3 -11,29 -15,60 -3,30 -10,57 -15,60 -4,2 -11,25 -14,50 -4,24 -11,47 -17,50 -5,4 -9,16 -9,28 0,12 -7,35 -15,51 -8,15 -15,35 -15,42 0,8 -9,31 -20,51 -11,21 -20,43 -20,50 0,8 -4,21 -9,31 -5,9 -46,94 -92,187 -45,94 -85,172 -89,175 -3,3 -24,34 -45,70 -41,68 -124,191 -135,200 -3,3 -16,21 -28,40 -11,19 -31,46 -44,60 -13,14 -41,48 -63,75 -61,77 -271,289 -360,363 -44,37 -89,75 -99,84 -11,10 -38,30 -60,45 -23,15 -43,31 -46,34 -19,23 -300,199 -318,199 -6,0 -12,4 -14,8 -4,11 -257,134 -323,158 -27,10 -59,24 -70,31 -11,7 -27,13 -36,13 -9,0 -30,7 -45,15 -16,8 -38,15 -49,15 -12,0 -25,4 -30,9 -10,10 -50,21 -145,42 -25,6 -54,14 -65,19 -19,8 -46,14 -190,40 -33,6 -82,16 -110,21 -139,27 -572,45 -695,29 z m 231,-117 c 0,-10 0,-153 -1,-318 -1,-165 2,-308 6,-318 6,-16 21,-18 153,-17 80,1 151,1 158,0 22,0 24,-39 3,-84 -11,-25 -20,-49 -20,-55 0,-5 -6,-22 -14,-38 -23,-45 -46,-100 -46,-111 0,-6 -6,-23 -14,-39 -16,-32 -26,-56 -56,-133 -12,-30 -26,-64 -30,-75 -5,-11 -19,-45 -30,-75 -24,-59 -30,-76 -54,-130 -8,-19 -18,-46 -21,-60 -9,-29 -33,-60 -49,-60 -8,0 -11,100 -11,337 v 338 l -197,3 c -156,2 -197,5 -201,16 -3,8 44,112 104,231 60,119 109,223 109,231 0,8 5,14 10,14 6,0 10,5 10,11 0,10 91,204 148,317 18,35 42,43 43,15 z M 5140,4942 c 33,-24 155,-129 210,-182 32,-30 100,-91 158,-142 38,-35 47,-38 101,-38 62,0 71,-7 71,-55 0,-33 -19,-44 -85,-47 l -60,-3 -3,-344 c -1,-234 -6,-349 -13,-358 -8,-9 -41,-13 -114,-13 -85,0 -104,3 -109,16 -3,9 -6,171 -6,360 v 344 h -355 -355 l -6,-23 c -3,-13 -4,-41 -2,-63 2,-29 7,-38 18,-34 8,2 62,6 119,8 160,5 261,-34 323,-123 33,-49 38,-129 11,-173 -30,-45 -36,-53 -93,-111 -118,-120 -160,-135 -250,-87 -57,30 -72,54 -46,70 43,26 126,110 145,147 63,120 -38,209 -147,129 -74,-53 -77,-62 -79,-264 -2,-131 -6,-182 -15,-188 -22,-13 -204,-10 -216,5 -6,7 -10,37 -10,67 1,93 10,85 -104,82 -98,-4 -127,0 -224,34 -73,26 -139,95 -154,160 -21,90 31,176 138,230 55,28 62,29 199,29 86,0 144,4 146,10 2,6 4,28 3,50 l -1,40 -367,3 -368,2 v -347 c 0,-192 -4,-354 -8,-361 -6,-9 -36,-12 -113,-10 l -104,3 -2,115 -1,115 -29,-4 c -66,-8 -252,-4 -293,8 -56,15 -114,54 -154,104 l -31,39 -5,166 -5,167 -137,3 -138,3 v -348 c 0,-191 -4,-354 -8,-361 -6,-9 -36,-12 -113,-10 l -104,3 -5,355 -5,355 h -139 -138 l 1,-344 c 0,-239 -3,-348 -10,-358 -14,-16 -190,-18 -220,-3 -18,10 -19,23 -19,226 v 215 l -127,-3 -128,-3 -5,-78 c -3,-54 -10,-81 -20,-88 -19,-12 -158,-7 -168,6 -4,6 -25,22 -47,37 -75,49 -145,126 -145,159 0,10 12,30 27,44 l 28,25 h 285 c 166,0 290,4 296,9 5,6 8,44 6,85 l -4,76 -376,2 -377,3 v 45 45 l 343,3 c 288,2 342,4 342,17 0,7 -5,17 -10,20 -5,3 -10,31 -10,61 0,89 70,175 175,215 53,20 228,28 239,10 3,-4 21,-11 39,-14 61,-10 140,-68 258,-188 l 115,-119 h 1377 c 835,0 1378,4 1382,9 3,5 -3,12 -12,15 -10,3 -29,16 -43,28 -14,13 -43,35 -66,51 -22,15 -49,35 -60,45 -11,9 -35,28 -55,42 -94,65 -142,107 -137,120 2,4 26,24 53,43 60,42 97,44 145,9 z"
       id="path48"
       inkscape:connector-curvature="0"
       style="stroke-width:2.8297956" />
    <path
       d="m 1991,4763 c -29,-35 -25,-105 8,-152 l 22,-31 h 140 c 115,0 139,3 139,15 0,7 -6,18 -14,22 -8,4 -44,36 -79,70 -110,104 -174,127 -216,76 z"
       id="path50"
       inkscape:connector-curvature="0"
       style="stroke-width:2.8297956" />
    <path
       d="m 3090,4321 v -159 l 35,-31 c 31,-26 44,-31 90,-31 29,0 60,6 67,13 7,6 30,23 50,37 l 38,25 v 153 152 h -140 -140 z"
       id="path52"
       inkscape:connector-curvature="0"
       style="stroke-width:2.8297956" />
    <path
       d="m 4134,4236 c -37,-32 -39,-37 -38,-89 0,-64 17,-90 70,-107 46,-15 98,1 139,43 30,31 32,38 30,94 -3,74 -7,81 -43,75 -16,-2 -33,1 -36,7 -4,6 -24,11 -45,11 -28,0 -47,-8 -77,-34 z"
       id="path54"
       inkscape:connector-curvature="0"
       style="stroke-width:2.8297956" />
    <path
       d="m 4635,3300 c -11,-5 -36,-9 -55,-10 -54,-2 -170,-69 -204,-120 -80,-118 -69,-278 25,-370 56,-54 76,-70 86,-70 4,0 22,-8 38,-17 26,-15 59,-18 227,-18 145,0 200,3 209,13 7,6 20,12 30,12 25,0 104,65 128,105 33,56 29,62 -41,70 -35,4 -67,11 -73,15 -35,26 -95,16 -95,-17 0,-15 -24,-41 -62,-65 -38,-25 -142,-24 -194,1 -57,28 -79,75 -79,171 0,68 4,81 27,112 35,46 84,68 151,68 67,0 94,-9 139,-49 l 34,-30 75,10 c 112,15 119,18 119,38 0,45 -104,122 -191,141 -69,15 -268,22 -294,10 z"
       id="path56"
       inkscape:connector-curvature="0"
       style="stroke-width:2.8297956" />
    <path
       d="m 5585,3300 c -11,-5 -33,-9 -50,-10 -16,0 -48,-9 -70,-20 -22,-11 -45,-19 -50,-20 -21,0 -103,-86 -125,-129 -20,-39 -22,-56 -18,-145 2,-66 8,-101 16,-104 7,-2 12,-10 12,-17 0,-38 91,-111 177,-143 63,-22 402,-25 449,-3 16,7 45,21 64,30 50,23 105,75 129,122 30,57 30,207 0,264 -45,86 -130,145 -239,166 -73,15 -270,21 -295,9 z m 242,-156 c 21,-17 46,-46 55,-65 19,-37 24,-134 8,-144 -5,-3 -10,-14 -10,-24 0,-10 -11,-30 -24,-44 -39,-42 -79,-57 -151,-57 -95,0 -149,32 -180,106 -30,71 -13,164 37,211 46,43 79,54 155,51 62,-3 76,-7 110,-34 z"
       id="path58"
       inkscape:connector-curvature="0"
       style="stroke-width:2.8297956" />
    <path
       d="m 715,3277 c -3,-12 -4,-148 -3,-302 l 3,-280 h 115 115 l 3,163 c 2,108 6,162 13,162 10,0 59,-48 252,-249 l 78,-82 112,3 112,3 v 300 300 h -110 -110 l -3,-158 c -2,-129 -5,-159 -17,-164 -10,-3 -24,6 -38,23 -20,26 -60,70 -225,243 l -53,56 -120,2 c -115,3 -119,2 -124,-20 z"
       id="path60"
       inkscape:connector-curvature="0"
       style="stroke-width:2.8297956" />
    <path
       d="m 1735,3288 c -3,-8 -4,-144 -3,-303 l 3,-290 353,-3 352,-2 v 60 60 h -224 c -181,0 -226,3 -235,14 -7,9 -11,38 -9,73 l 3,58 205,5 205,5 3,53 3,52 h -188 c -103,0 -198,3 -210,6 -19,5 -23,13 -23,49 0,30 5,45 16,49 9,3 110,6 225,6 h 210 l -3,58 -3,57 -338,3 c -266,2 -339,0 -342,-10 z"
       id="path62"
       inkscape:connector-curvature="0"
       style="stroke-width:2.8297956" />
    <path
       d="m 2605,3277 c -3,-12 -4,-148 -3,-302 l 3,-280 349,-3 c 227,-1 352,1 356,8 5,8 6,68 1,103 -1,4 -99,7 -219,7 -156,0 -221,3 -230,12 -12,12 -16,95 -6,122 5,14 32,16 198,16 109,0 196,4 202,10 5,5 8,30 6,55 l -4,45 h -188 c -104,0 -195,3 -204,6 -11,4 -16,19 -16,50 0,24 1,45 3,46 1,1 101,4 222,8 l 220,5 3,43 c 6,75 20,72 -354,72 l -334,-1 z"
       id="path64"
       inkscape:connector-curvature="0"
       style="stroke-width:2.8297956" />
    <path
       d="m 3480,3288 c 0,-35 -1,-575 0,-585 0,-10 32,-13 125,-13 h 125 v 98 c 0,152 -14,139 165,143 106,3 158,8 167,17 6,6 20,12 30,12 22,0 75,51 88,85 6,15 10,51 10,80 0,47 -4,59 -32,91 -63,71 -87,76 -400,81 -227,4 -278,2 -278,-9 z m 395,-104 c 39,-8 75,-42 75,-71 0,-43 -42,-70 -121,-77 -89,-9 -99,-2 -99,71 0,81 10,94 68,88 26,-3 61,-8 77,-11 z"
       id="path66"
       inkscape:connector-curvature="0"
       style="stroke-width:2.8297956" />
    <path
       d="m 335,2411 c -3,-5 -1,-12 5,-16 5,-3 10,-14 10,-23 0,-9 7,-30 15,-46 8,-15 15,-36 15,-45 0,-10 7,-26 15,-37 8,-10 15,-25 15,-32 0,-8 7,-30 16,-50 29,-67 177,-367 184,-372 3,-3 24,-34 45,-70 42,-69 124,-192 134,-200 3,-3 19,-23 34,-46 15,-22 35,-49 45,-60 10,-10 52,-59 94,-109 82,-98 243,-257 323,-320 28,-22 59,-49 70,-60 11,-11 38,-33 61,-48 22,-15 49,-35 60,-45 10,-10 37,-29 59,-42 22,-13 42,-27 45,-30 3,-3 23,-17 45,-30 22,-13 46,-30 53,-37 7,-7 18,-13 23,-13 5,0 37,-17 72,-37 34,-21 85,-49 112,-63 28,-14 52,-28 53,-32 2,-5 8,-8 13,-8 6,0 31,-9 57,-21 26,-11 63,-27 82,-35 45,-20 100,-45 122,-55 10,-5 23,-9 29,-9 6,0 25,-6 42,-14 18,-8 66,-24 107,-36 41,-12 94,-28 118,-36 23,-8 52,-14 63,-14 11,0 28,-4 38,-10 26,-13 212,-46 401,-71 108,-14 587,-14 700,0 111,13 248,36 335,54 39,9 95,21 125,27 30,7 60,15 65,20 6,4 29,11 52,15 24,4 45,10 48,15 3,5 23,11 45,15 22,4 42,11 46,16 3,5 13,9 22,9 9,0 30,7 46,15 15,8 35,15 43,15 8,0 27,7 41,15 15,8 50,24 77,35 112,48 311,153 399,211 32,21 62,39 66,39 5,0 15,6 22,13 7,7 38,31 68,52 30,21 57,41 60,44 3,3 23,19 46,34 22,15 49,35 60,45 10,9 55,48 99,87 99,85 212,199 285,285 30,36 57,67 60,70 4,3 31,37 60,75 29,39 56,72 60,75 3,3 17,23 30,45 13,22 27,42 30,45 3,3 17,23 30,45 13,22 30,46 37,53 7,7 13,18 13,23 0,6 11,25 25,43 14,18 25,38 25,44 0,6 6,17 13,24 11,12 109,206 128,253 4,11 17,41 28,67 12,26 21,54 21,62 0,9 4,16 9,16 5,0 12,17 16,38 4,20 10,42 15,47 4,6 12,27 18,47 8,30 7,38 -5,42 -26,10 -6031,7 -6038,-3 z m 3680,-233 c 4,-24 15,-53 23,-66 14,-22 20,-23 66,-17 28,3 56,11 63,17 18,14 35,0 27,-24 -3,-11 -26,-40 -51,-64 l -45,-43 52,-55 c 28,-30 49,-60 45,-65 -9,-15 -47,-14 -88,4 -20,8 -42,13 -49,10 -16,-6 -34,-47 -44,-98 -3,-20 -10,-39 -14,-42 -14,-9 -45,37 -55,83 -10,47 -10,47 -50,45 -22,-1 -59,-5 -82,-9 -56,-8 -56,7 2,66 25,25 45,50 45,55 0,6 -20,33 -45,62 -45,51 -57,83 -32,83 7,0 18,-5 23,-10 6,-6 37,-12 70,-13 l 58,-2 11,47 c 10,46 41,92 55,83 5,-3 11,-24 15,-47 z m 1254,15 c 6,-21 11,-46 11,-55 0,-9 10,-24 22,-32 18,-13 25,-13 56,-1 40,17 92,20 92,5 0,-6 -17,-29 -37,-51 -60,-65 -61,-66 -9,-118 44,-45 56,-73 37,-86 -5,-3 -12,-1 -15,4 -10,15 -115,24 -131,11 -8,-6 -17,-32 -21,-56 -4,-29 -13,-48 -25,-55 -27,-14 -36,-5 -43,43 -11,70 -25,81 -90,73 -31,-4 -59,-11 -62,-16 -3,-5 -10,-7 -15,-4 -20,13 -7,42 37,88 l 47,48 -20,22 c -11,12 -32,35 -46,52 -15,16 -27,35 -27,42 0,18 49,16 93,-2 34,-14 37,-14 56,6 11,12 22,43 26,70 6,43 10,49 30,49 19,0 26,-8 34,-37 z m -3676,-17 c 8,-19 19,-50 22,-70 6,-28 12,-36 29,-36 12,0 26,4 32,9 14,14 87,22 104,12 12,-9 9,-16 -20,-48 -19,-21 -41,-41 -47,-46 -23,-14 -14,-42 27,-85 22,-22 40,-50 40,-60 0,-18 -3,-18 -67,-6 -93,18 -91,19 -99,-23 -4,-20 -16,-52 -27,-71 -19,-32 -21,-33 -34,-16 -7,10 -13,28 -13,40 0,13 -4,26 -10,29 -5,3 -10,14 -10,23 0,30 -17,47 -32,34 -19,-15 -123,-20 -123,-5 0,6 19,32 43,57 48,52 48,57 -12,116 -56,55 -44,75 35,58 86,-18 88,-17 113,95 9,37 29,34 49,-7 z m 1170,0 c 8,-19 19,-50 22,-70 6,-28 12,-36 29,-36 12,0 27,5 33,11 12,12 98,17 109,6 4,-4 -13,-29 -39,-55 -26,-26 -47,-55 -47,-63 0,-8 18,-34 40,-57 22,-22 40,-50 40,-60 0,-18 -3,-18 -67,-6 -92,18 -91,18 -98,-18 -6,-34 -22,-74 -38,-96 -14,-19 -37,5 -37,39 0,15 -4,31 -10,34 -5,3 -10,14 -10,23 0,29 -17,47 -32,35 -7,-6 -39,-14 -70,-18 -73,-9 -75,2 -13,69 51,54 51,57 -15,123 -57,57 -15,78 82,41 32,-12 48,-4 48,23 0,10 4,27 9,37 6,9 12,29 16,45 7,37 28,34 48,-7 z m -518,-616 c 4,-23 14,-54 22,-71 14,-29 18,-30 57,-24 22,4 49,11 58,16 61,32 60,-18 -2,-79 -22,-21 -40,-42 -40,-47 0,-4 20,-30 45,-56 25,-26 45,-55 45,-64 0,-17 -31,-20 -58,-6 -9,4 -34,11 -54,15 -35,6 -38,5 -51,-26 -8,-18 -17,-50 -21,-70 -4,-21 -12,-38 -19,-38 -19,1 -44,42 -52,88 -4,29 -12,42 -23,44 -33,2 -77,-4 -86,-13 -16,-15 -66,-11 -66,5 0,8 3,16 8,18 15,7 82,89 82,101 0,6 -21,34 -45,61 -50,55 -58,82 -22,73 140,-35 141,-35 152,20 8,45 35,93 51,93 7,0 15,-18 19,-40 z m 1146,17 c 9,-12 20,-41 24,-64 8,-50 25,-58 86,-43 24,6 54,14 67,17 35,9 27,-18 -23,-73 -24,-27 -45,-55 -45,-61 0,-12 67,-94 83,-101 4,-2 7,-10 7,-18 0,-16 -50,-20 -66,-5 -9,9 -53,15 -86,13 -11,-2 -18,-15 -23,-44 -8,-46 -41,-102 -55,-93 -4,3 -11,23 -15,45 -4,23 -14,54 -22,71 -13,27 -18,29 -51,23 -21,-4 -45,-11 -54,-15 -27,-14 -58,-11 -58,6 0,9 20,38 45,64 25,26 45,52 45,56 0,4 -20,30 -45,56 -25,26 -45,55 -45,64 0,16 40,21 56,6 5,-5 28,-12 50,-16 39,-6 43,-5 57,24 8,17 18,48 22,71 8,45 22,50 46,17 z m 1171,-4 c 9,-16 19,-45 23,-66 11,-55 12,-55 153,-20 35,9 27,-18 -23,-73 -24,-27 -45,-55 -45,-61 0,-12 67,-94 83,-101 4,-2 7,-10 7,-18 0,-15 -55,-20 -64,-5 -7,11 -73,22 -91,15 -8,-3 -17,-25 -20,-48 -4,-24 -17,-56 -30,-72 l -23,-29 -11,28 c -6,16 -11,34 -11,41 0,8 -7,30 -15,50 -15,35 -17,37 -53,30 -20,-4 -45,-11 -54,-15 -27,-14 -58,-11 -58,6 0,9 20,38 45,64 25,26 45,52 45,57 -1,5 -19,27 -40,49 -63,63 -66,98 -7,78 17,-7 48,-15 68,-18 34,-6 38,-4 52,24 8,17 18,48 22,71 8,47 24,51 47,13 z M 3416,853 c 3,-16 9,-37 14,-48 5,-11 12,-31 15,-44 6,-21 11,-23 49,-17 22,4 56,12 73,18 60,22 59,-3 -2,-66 -30,-32 -55,-60 -55,-62 0,-3 25,-30 55,-61 30,-31 52,-60 49,-64 -7,-12 -57,-11 -70,0 -5,5 -28,11 -50,15 l -42,6 -23,-71 c -13,-39 -28,-71 -34,-71 -10,1 -39,67 -49,115 -6,26 -9,27 -49,21 -23,-4 -46,-10 -51,-15 -12,-11 -76,-12 -76,-1 0,4 25,34 55,66 l 54,59 -55,59 c -30,33 -52,64 -49,69 8,12 38,12 51,0 5,-5 32,-12 61,-16 51,-7 52,-6 59,22 3,15 12,42 20,60 8,17 14,36 14,42 0,23 30,10 36,-16 z"
       id="path68"
       inkscape:connector-curvature="0"
       style="stroke-width:2.8297956" />
  </g>
</svg>
